<mxfile host="app.diagrams.net" modified="2021-07-13T12:26:04.999Z" agent="5.0 (Windows NT 10.0; Win64; x64) AppleWebKit/537.36 (KHTML, like Gecko) Chrome/91.0.4472.124 Safari/537.36" etag="AIaIOeYtp-BlyoOLFC6u" version="14.8.4" type="github">
  <diagram id="D_mxDGUdHC2zvLyJ-O9W" name="第 1 页">
    <mxGraphModel dx="1730" dy="872" grid="1" gridSize="10" guides="1" tooltips="1" connect="1" arrows="1" fold="1" page="1" pageScale="1" pageWidth="827" pageHeight="1169" math="0" shadow="0">
      <root>
        <mxCell id="0" />
        <mxCell id="1" parent="0" />
        <mxCell id="pGjjTHvSry_VetWjGLrW-47" value="" style="rounded=1;whiteSpace=wrap;html=1;glass=0;fontSize=15;fontColor=#66FF66;strokeWidth=3;fillColor=none;strokeColor=#378F99;" vertex="1" parent="1">
          <mxGeometry x="1870" y="70" width="250" height="1010" as="geometry" />
        </mxCell>
        <mxCell id="pGjjTHvSry_VetWjGLrW-48" value="登录验证" style="rounded=1;whiteSpace=wrap;html=1;glass=0;fontSize=18;fontStyle=1;strokeColor=none;fontColor=#FFFFFF;fillColor=#378F99;" vertex="1" parent="1">
          <mxGeometry x="1895" y="99.5" width="200" height="65" as="geometry" />
        </mxCell>
        <mxCell id="pGjjTHvSry_VetWjGLrW-49" value="权限验证" style="rounded=1;whiteSpace=wrap;html=1;glass=0;fontSize=18;fontStyle=1;strokeColor=none;fontColor=#FFFFFF;fillColor=#378F99;" vertex="1" parent="1">
          <mxGeometry x="1895" y="197" width="200" height="65" as="geometry" />
        </mxCell>
        <mxCell id="pGjjTHvSry_VetWjGLrW-50" value="数据验证" style="rounded=1;whiteSpace=wrap;html=1;glass=0;fontSize=18;fontStyle=1;strokeColor=none;fontColor=#FFFFFF;fillColor=#378F99;" vertex="1" parent="1">
          <mxGeometry x="1895" y="294" width="200" height="65" as="geometry" />
        </mxCell>
        <mxCell id="pGjjTHvSry_VetWjGLrW-51" value="队列处理" style="rounded=1;whiteSpace=wrap;html=1;glass=0;fontSize=18;fontStyle=1;strokeColor=none;fontColor=#FFFFFF;fillColor=#378F99;" vertex="1" parent="1">
          <mxGeometry x="1895" y="391" width="200" height="65" as="geometry" />
        </mxCell>
        <mxCell id="pGjjTHvSry_VetWjGLrW-52" value="异常处理" style="rounded=1;whiteSpace=wrap;html=1;glass=0;fontSize=18;fontStyle=1;strokeColor=none;fontColor=#FFFFFF;fillColor=#378F99;" vertex="1" parent="1">
          <mxGeometry x="1894.5" y="488" width="200" height="65" as="geometry" />
        </mxCell>
        <mxCell id="pGjjTHvSry_VetWjGLrW-53" value="事务处理" style="rounded=1;whiteSpace=wrap;html=1;glass=0;fontSize=18;fontStyle=1;strokeColor=none;fontColor=#FFFFFF;fillColor=#378F99;" vertex="1" parent="1">
          <mxGeometry x="1894.5" y="586" width="200" height="65" as="geometry" />
        </mxCell>
        <mxCell id="pGjjTHvSry_VetWjGLrW-54" value="服务治理" style="rounded=1;whiteSpace=wrap;html=1;glass=0;fontSize=18;fontStyle=1;strokeColor=none;fontColor=#FFFFFF;fillColor=#378F99;" vertex="1" parent="1">
          <mxGeometry x="1894.5" y="683" width="200" height="65" as="geometry" />
        </mxCell>
        <mxCell id="pGjjTHvSry_VetWjGLrW-55" value="缓存处理" style="rounded=1;whiteSpace=wrap;html=1;glass=0;fontSize=18;fontStyle=1;strokeColor=none;fontColor=#FFFFFF;fillColor=#378F99;" vertex="1" parent="1">
          <mxGeometry x="1894.5" y="780" width="200" height="65" as="geometry" />
        </mxCell>
        <mxCell id="pGjjTHvSry_VetWjGLrW-56" value="日志审计" style="rounded=1;whiteSpace=wrap;html=1;glass=0;fontSize=18;fontStyle=1;strokeColor=none;fontColor=#FFFFFF;fillColor=#378F99;" vertex="1" parent="1">
          <mxGeometry x="1894.5" y="877" width="200" height="65" as="geometry" />
        </mxCell>
        <mxCell id="pGjjTHvSry_VetWjGLrW-57" value="集群服务" style="rounded=1;whiteSpace=wrap;html=1;glass=0;fontSize=18;fontStyle=1;strokeColor=none;fontColor=#FFFFFF;fillColor=#378F99;" vertex="1" parent="1">
          <mxGeometry x="1894.5" y="974.5" width="200" height="65" as="geometry" />
        </mxCell>
        <mxCell id="pGjjTHvSry_VetWjGLrW-60" value="" style="rounded=1;whiteSpace=wrap;html=1;shadow=0;glass=0;labelBackgroundColor=#FFFFFF;sketch=0;strokeWidth=3;fontSize=32;fontStyle=1;align=left;fillColor=#CC6600;strokeColor=none;" vertex="1" parent="1">
          <mxGeometry x="70" y="836.5" width="1770" height="243.5" as="geometry" />
        </mxCell>
        <mxCell id="pGjjTHvSry_VetWjGLrW-66" value="&lt;font style=&quot;font-size: 36px&quot;&gt;基础&lt;br&gt;平台&lt;/font&gt;" style="text;html=1;strokeColor=none;fillColor=none;align=center;verticalAlign=middle;whiteSpace=wrap;rounded=0;fontStyle=1;fontColor=#FFFFFF;" vertex="1" parent="1">
          <mxGeometry x="87.5" y="907.75" width="112.5" height="80" as="geometry" />
        </mxCell>
        <mxCell id="pGjjTHvSry_VetWjGLrW-43" value="" style="rounded=1;whiteSpace=wrap;fontSize=32;spacing=2;html=1;glass=0;strokeWidth=1;shadow=0;sketch=0;labelBackgroundColor=none;strokeColor=none;" vertex="1" parent="1">
          <mxGeometry x="214.41" y="857.75" width="335.59" height="202.25" as="geometry" />
        </mxCell>
        <mxCell id="pGjjTHvSry_VetWjGLrW-62" value="标注任务平台" style="text;html=1;strokeColor=none;fillColor=none;align=center;verticalAlign=middle;whiteSpace=wrap;rounded=0;fontSize=20;fontStyle=1;" vertex="1" parent="1">
          <mxGeometry x="312.39" y="872.75" width="139.63" height="20" as="geometry" />
        </mxCell>
        <mxCell id="pGjjTHvSry_VetWjGLrW-68" value="任务中心" style="rounded=1;whiteSpace=wrap;html=1;fontSize=18;strokeColor=none;fontStyle=1;fontColor=#FFFFFF;fillColor=#CC6600;" vertex="1" parent="1">
          <mxGeometry x="250" y="913" width="117.5" height="55.5" as="geometry" />
        </mxCell>
        <mxCell id="pGjjTHvSry_VetWjGLrW-69" value="练习中心" style="rounded=1;whiteSpace=wrap;html=1;fontSize=18;strokeColor=none;fontStyle=1;fontColor=#FFFFFF;fillColor=#CC6600;" vertex="1" parent="1">
          <mxGeometry x="250" y="983" width="117.5" height="55.5" as="geometry" />
        </mxCell>
        <mxCell id="pGjjTHvSry_VetWjGLrW-70" value="考试中心" style="rounded=1;whiteSpace=wrap;html=1;fontSize=18;strokeColor=none;fontStyle=1;fontColor=#FFFFFF;fillColor=#CC6600;" vertex="1" parent="1">
          <mxGeometry x="400.0000000000001" y="913" width="117.5" height="55.5" as="geometry" />
        </mxCell>
        <mxCell id="pGjjTHvSry_VetWjGLrW-73" value="" style="rounded=1;whiteSpace=wrap;fontSize=32;spacing=2;html=1;glass=0;strokeWidth=1;shadow=0;sketch=0;labelBackgroundColor=none;strokeColor=none;" vertex="1" parent="1">
          <mxGeometry x="580" y="857.75" width="340" height="202.25" as="geometry" />
        </mxCell>
        <mxCell id="pGjjTHvSry_VetWjGLrW-74" value="系统管理平台" style="text;html=1;strokeColor=none;fillColor=none;align=center;verticalAlign=middle;whiteSpace=wrap;rounded=0;fontSize=20;fontStyle=1;" vertex="1" parent="1">
          <mxGeometry x="679.5299999999999" y="872.75" width="139.63" height="20" as="geometry" />
        </mxCell>
        <mxCell id="pGjjTHvSry_VetWjGLrW-75" value="数据" style="rounded=1;whiteSpace=wrap;html=1;fontSize=18;strokeColor=none;fontStyle=1;fontColor=#FFFFFF;fillColor=#CC6600;" vertex="1" parent="1">
          <mxGeometry x="617" y="913" width="117.5" height="55.5" as="geometry" />
        </mxCell>
        <mxCell id="pGjjTHvSry_VetWjGLrW-76" value="任务" style="rounded=1;whiteSpace=wrap;html=1;fontSize=18;strokeColor=none;fontStyle=1;fontColor=#FFFFFF;fillColor=#CC6600;" vertex="1" parent="1">
          <mxGeometry x="770" y="913" width="117.5" height="55.5" as="geometry" />
        </mxCell>
        <mxCell id="pGjjTHvSry_VetWjGLrW-77" value="组织" style="rounded=1;whiteSpace=wrap;html=1;fontSize=18;strokeColor=none;fontStyle=1;fontColor=#FFFFFF;fillColor=#CC6600;" vertex="1" parent="1">
          <mxGeometry x="617" y="983" width="117.5" height="55.5" as="geometry" />
        </mxCell>
        <mxCell id="pGjjTHvSry_VetWjGLrW-78" value="系统" style="rounded=1;whiteSpace=wrap;html=1;fontSize=18;strokeColor=none;fontStyle=1;fontColor=#FFFFFF;fillColor=#CC6600;" vertex="1" parent="1">
          <mxGeometry x="770" y="983" width="117.5" height="55.5" as="geometry" />
        </mxCell>
        <mxCell id="pGjjTHvSry_VetWjGLrW-80" value="" style="rounded=1;whiteSpace=wrap;html=1;shadow=0;glass=0;labelBackgroundColor=#FFFFFF;sketch=0;strokeWidth=3;fontSize=32;fontStyle=1;align=left;strokeColor=none;fillColor=#3333FF;" vertex="1" parent="1">
          <mxGeometry x="70" y="330" width="1770" height="488" as="geometry" />
        </mxCell>
        <mxCell id="pGjjTHvSry_VetWjGLrW-81" value="&lt;span style=&quot;font-size: 36px&quot;&gt;功能&lt;br&gt;模块&lt;/span&gt;" style="text;html=1;strokeColor=none;fillColor=none;align=center;verticalAlign=middle;whiteSpace=wrap;rounded=0;fontStyle=1;fontColor=#FFFFFF;" vertex="1" parent="1">
          <mxGeometry x="87.5" y="529" width="112.5" height="80" as="geometry" />
        </mxCell>
        <mxCell id="pGjjTHvSry_VetWjGLrW-82" value="" style="rounded=1;whiteSpace=wrap;fontSize=32;spacing=2;html=1;glass=0;strokeWidth=1;shadow=0;sketch=0;labelBackgroundColor=none;strokeColor=none;" vertex="1" parent="1">
          <mxGeometry x="220.00000000000003" y="358.26" width="325.59" height="198.12" as="geometry" />
        </mxCell>
        <mxCell id="pGjjTHvSry_VetWjGLrW-83" value="数据集管理" style="text;html=1;strokeColor=none;fillColor=none;align=center;verticalAlign=middle;whiteSpace=wrap;rounded=0;fontSize=20;fontStyle=1;" vertex="1" parent="1">
          <mxGeometry x="312.97999999999996" y="374.13" width="139.63" height="20" as="geometry" />
        </mxCell>
        <mxCell id="pGjjTHvSry_VetWjGLrW-84" value="本地上传" style="rounded=1;whiteSpace=wrap;html=1;fontSize=18;strokeColor=none;fontStyle=1;fontColor=#FFFFFF;fillColor=#3333FF;" vertex="1" parent="1">
          <mxGeometry x="255.58999999999997" y="410.13" width="117.5" height="55.5" as="geometry" />
        </mxCell>
        <mxCell id="pGjjTHvSry_VetWjGLrW-85" value="服务器导入" style="rounded=1;whiteSpace=wrap;html=1;fontSize=18;strokeColor=none;fontStyle=1;fontColor=#FFFFFF;fillColor=#3333FF;" vertex="1" parent="1">
          <mxGeometry x="395.59" y="410.13" width="117.5" height="55.5" as="geometry" />
        </mxCell>
        <mxCell id="pGjjTHvSry_VetWjGLrW-86" value="接口上传" style="rounded=1;whiteSpace=wrap;html=1;fontSize=18;strokeColor=none;fontStyle=1;fontColor=#FFFFFF;fillColor=#3333FF;" vertex="1" parent="1">
          <mxGeometry x="255.58999999999986" y="480.63" width="117.5" height="55.5" as="geometry" />
        </mxCell>
        <mxCell id="pGjjTHvSry_VetWjGLrW-92" value="" style="rounded=1;whiteSpace=wrap;fontSize=32;spacing=2;html=1;glass=0;strokeWidth=1;shadow=0;sketch=0;labelBackgroundColor=none;strokeColor=none;" vertex="1" parent="1">
          <mxGeometry x="950" y="857.75" width="460" height="202.25" as="geometry" />
        </mxCell>
        <mxCell id="pGjjTHvSry_VetWjGLrW-93" value="模板工具" style="text;html=1;strokeColor=none;fillColor=none;align=center;verticalAlign=middle;whiteSpace=wrap;rounded=0;fontSize=20;fontStyle=1;" vertex="1" parent="1">
          <mxGeometry x="1110.1899999999998" y="872.75" width="139.63" height="20" as="geometry" />
        </mxCell>
        <mxCell id="pGjjTHvSry_VetWjGLrW-94" value="语音模板" style="rounded=1;whiteSpace=wrap;html=1;fontSize=18;strokeColor=none;fontStyle=1;fontColor=#FFFFFF;fillColor=#CC6600;" vertex="1" parent="1">
          <mxGeometry x="980" y="913" width="117.5" height="55.5" as="geometry" />
        </mxCell>
        <mxCell id="pGjjTHvSry_VetWjGLrW-95" value="图像模板" style="rounded=1;whiteSpace=wrap;html=1;fontSize=18;strokeColor=none;fontStyle=1;fontColor=#FFFFFF;fillColor=#CC6600;" vertex="1" parent="1">
          <mxGeometry x="1120" y="913" width="117.5" height="55.5" as="geometry" />
        </mxCell>
        <mxCell id="pGjjTHvSry_VetWjGLrW-96" value="文本模板" style="rounded=1;whiteSpace=wrap;html=1;fontSize=18;strokeColor=none;fontStyle=1;fontColor=#FFFFFF;fillColor=#CC6600;" vertex="1" parent="1">
          <mxGeometry x="980" y="983" width="117.5" height="55.5" as="geometry" />
        </mxCell>
        <mxCell id="pGjjTHvSry_VetWjGLrW-97" value="视频模板" style="rounded=1;whiteSpace=wrap;html=1;fontSize=18;strokeColor=none;fontStyle=1;fontColor=#FFFFFF;fillColor=#CC6600;" vertex="1" parent="1">
          <mxGeometry x="1120" y="983" width="117.5" height="55.5" as="geometry" />
        </mxCell>
        <mxCell id="pGjjTHvSry_VetWjGLrW-98" value="点云模板" style="rounded=1;whiteSpace=wrap;html=1;fontSize=18;strokeColor=none;fontStyle=1;fontColor=#FFFFFF;fillColor=#CC6600;" vertex="1" parent="1">
          <mxGeometry x="1260" y="913" width="117.5" height="55.5" as="geometry" />
        </mxCell>
        <mxCell id="pGjjTHvSry_VetWjGLrW-99" value="综合模板" style="rounded=1;whiteSpace=wrap;html=1;fontSize=18;strokeColor=none;fontStyle=1;fontColor=#FFFFFF;fillColor=#CC6600;" vertex="1" parent="1">
          <mxGeometry x="1260" y="983" width="117.5" height="55.5" as="geometry" />
        </mxCell>
        <mxCell id="pGjjTHvSry_VetWjGLrW-100" value="" style="rounded=1;whiteSpace=wrap;fontSize=32;spacing=2;html=1;glass=0;strokeWidth=1;shadow=0;sketch=0;labelBackgroundColor=none;strokeColor=none;" vertex="1" parent="1">
          <mxGeometry x="1440" y="857.13" width="340" height="202.25" as="geometry" />
        </mxCell>
        <mxCell id="pGjjTHvSry_VetWjGLrW-101" value="数据处理镜像" style="text;html=1;strokeColor=none;fillColor=none;align=center;verticalAlign=middle;whiteSpace=wrap;rounded=0;fontSize=20;fontStyle=1;" vertex="1" parent="1">
          <mxGeometry x="1515.42" y="872.75" width="189.16" height="20" as="geometry" />
        </mxCell>
        <mxCell id="pGjjTHvSry_VetWjGLrW-102" value="数据预识别" style="rounded=1;whiteSpace=wrap;html=1;fontSize=18;strokeColor=none;fontStyle=1;fontColor=#FFFFFF;fillColor=#CC6600;" vertex="1" parent="1">
          <mxGeometry x="1477" y="912.3800000000001" width="117.5" height="55.5" as="geometry" />
        </mxCell>
        <mxCell id="pGjjTHvSry_VetWjGLrW-103" value="格式转换" style="rounded=1;whiteSpace=wrap;html=1;fontSize=18;strokeColor=none;fontStyle=1;fontColor=#FFFFFF;fillColor=#CC6600;" vertex="1" parent="1">
          <mxGeometry x="1630" y="912.3800000000001" width="117.5" height="55.5" as="geometry" />
        </mxCell>
        <mxCell id="pGjjTHvSry_VetWjGLrW-104" value="格式检查" style="rounded=1;whiteSpace=wrap;html=1;fontSize=18;strokeColor=none;fontStyle=1;fontColor=#FFFFFF;fillColor=#CC6600;" vertex="1" parent="1">
          <mxGeometry x="1477" y="982.3800000000001" width="117.5" height="55.5" as="geometry" />
        </mxCell>
        <mxCell id="pGjjTHvSry_VetWjGLrW-105" value="数据前处理" style="rounded=1;whiteSpace=wrap;html=1;fontSize=18;strokeColor=none;fontStyle=1;fontColor=#FFFFFF;fillColor=#CC6600;" vertex="1" parent="1">
          <mxGeometry x="1630" y="982.3800000000001" width="117.5" height="55.5" as="geometry" />
        </mxCell>
        <mxCell id="pGjjTHvSry_VetWjGLrW-107" value="" style="rounded=1;whiteSpace=wrap;fontSize=32;spacing=2;html=1;glass=0;strokeWidth=1;shadow=0;sketch=0;labelBackgroundColor=none;strokeColor=none;" vertex="1" parent="1">
          <mxGeometry x="220.59" y="589.38" width="469.41" height="198.62" as="geometry" />
        </mxCell>
        <mxCell id="pGjjTHvSry_VetWjGLrW-108" value="标注流程管理" style="text;html=1;strokeColor=none;fillColor=none;align=center;verticalAlign=middle;whiteSpace=wrap;rounded=0;fontSize=20;fontStyle=1;" vertex="1" parent="1">
          <mxGeometry x="384.5299999999999" y="608" width="139.63" height="20" as="geometry" />
        </mxCell>
        <mxCell id="pGjjTHvSry_VetWjGLrW-109" value="按条按包区分" style="rounded=1;whiteSpace=wrap;html=1;fontSize=18;strokeColor=none;fontStyle=1;fontColor=#FFFFFF;fillColor=#3333FF;" vertex="1" parent="1">
          <mxGeometry x="256.17999999999995" y="646.63" width="117.5" height="55.5" as="geometry" />
        </mxCell>
        <mxCell id="pGjjTHvSry_VetWjGLrW-110" value="质检比例设置" style="rounded=1;whiteSpace=wrap;html=1;fontSize=18;strokeColor=none;fontStyle=1;fontColor=#FFFFFF;fillColor=#3333FF;" vertex="1" parent="1">
          <mxGeometry x="396.17999999999995" y="646.63" width="117.5" height="55.5" as="geometry" />
        </mxCell>
        <mxCell id="pGjjTHvSry_VetWjGLrW-111" value="拟合非拟合" style="rounded=1;whiteSpace=wrap;html=1;fontSize=18;strokeColor=none;fontStyle=1;fontColor=#FFFFFF;fillColor=#3333FF;" vertex="1" parent="1">
          <mxGeometry x="256.17999999999984" y="717.13" width="117.5" height="55.5" as="geometry" />
        </mxCell>
        <mxCell id="pGjjTHvSry_VetWjGLrW-112" value="" style="rounded=1;whiteSpace=wrap;fontSize=32;spacing=2;html=1;glass=0;strokeWidth=1;shadow=0;sketch=0;labelBackgroundColor=none;strokeColor=none;" vertex="1" parent="1">
          <mxGeometry x="576.39" y="358.26" width="325.59" height="199.88" as="geometry" />
        </mxCell>
        <mxCell id="pGjjTHvSry_VetWjGLrW-113" value="预识别处理" style="text;html=1;strokeColor=none;fillColor=none;align=center;verticalAlign=middle;whiteSpace=wrap;rounded=0;fontSize=20;fontStyle=1;" vertex="1" parent="1">
          <mxGeometry x="669.37" y="374.13" width="139.63" height="20" as="geometry" />
        </mxCell>
        <mxCell id="pGjjTHvSry_VetWjGLrW-114" value="能力管理" style="rounded=1;whiteSpace=wrap;html=1;fontSize=18;strokeColor=none;fontStyle=1;fontColor=#FFFFFF;fillColor=#3333FF;" vertex="1" parent="1">
          <mxGeometry x="611.98" y="410.13" width="117.5" height="55.5" as="geometry" />
        </mxCell>
        <mxCell id="pGjjTHvSry_VetWjGLrW-115" value="批处理" style="rounded=1;whiteSpace=wrap;html=1;fontSize=18;strokeColor=none;fontStyle=1;fontColor=#FFFFFF;fillColor=#3333FF;" vertex="1" parent="1">
          <mxGeometry x="751.98" y="410.13" width="117.5" height="55.5" as="geometry" />
        </mxCell>
        <mxCell id="pGjjTHvSry_VetWjGLrW-116" value="在线接口" style="rounded=1;whiteSpace=wrap;html=1;fontSize=18;strokeColor=none;fontStyle=1;fontColor=#FFFFFF;fillColor=#3333FF;" vertex="1" parent="1">
          <mxGeometry x="611.9799999999999" y="480.63" width="117.5" height="55.5" as="geometry" />
        </mxCell>
        <mxCell id="pGjjTHvSry_VetWjGLrW-117" value="插件式镜像" style="rounded=1;whiteSpace=wrap;html=1;fontSize=18;strokeColor=none;fontStyle=1;fontColor=#FFFFFF;fillColor=#3333FF;" vertex="1" parent="1">
          <mxGeometry x="751.98" y="480.63" width="117.5" height="55.5" as="geometry" />
        </mxCell>
        <mxCell id="pGjjTHvSry_VetWjGLrW-118" value="数据可视化" style="rounded=1;whiteSpace=wrap;html=1;fontSize=18;strokeColor=none;fontStyle=1;fontColor=#FFFFFF;fillColor=#3333FF;" vertex="1" parent="1">
          <mxGeometry x="396.17999999999995" y="481.38" width="117.5" height="55.5" as="geometry" />
        </mxCell>
        <mxCell id="pGjjTHvSry_VetWjGLrW-119" value="" style="rounded=1;whiteSpace=wrap;fontSize=32;spacing=2;html=1;glass=0;strokeWidth=1;shadow=0;sketch=0;labelBackgroundColor=none;strokeColor=none;" vertex="1" parent="1">
          <mxGeometry x="931.98" y="358.26" width="470" height="199.88" as="geometry" />
        </mxCell>
        <mxCell id="pGjjTHvSry_VetWjGLrW-120" value="任务管理" style="text;html=1;strokeColor=none;fillColor=none;align=center;verticalAlign=middle;whiteSpace=wrap;rounded=0;fontSize=20;fontStyle=1;" vertex="1" parent="1">
          <mxGeometry x="1097.1699999999998" y="374.13" width="139.63" height="20" as="geometry" />
        </mxCell>
        <mxCell id="pGjjTHvSry_VetWjGLrW-121" value="项目管理" style="rounded=1;whiteSpace=wrap;html=1;fontSize=18;strokeColor=none;fontStyle=1;fontColor=#FFFFFF;fillColor=#3333FF;" vertex="1" parent="1">
          <mxGeometry x="967.5699999999998" y="410.13" width="117.5" height="55.5" as="geometry" />
        </mxCell>
        <mxCell id="pGjjTHvSry_VetWjGLrW-122" value="任务配置" style="rounded=1;whiteSpace=wrap;html=1;fontSize=18;strokeColor=none;fontStyle=1;fontColor=#FFFFFF;fillColor=#3333FF;" vertex="1" parent="1">
          <mxGeometry x="1107.5699999999997" y="410.13" width="117.5" height="55.5" as="geometry" />
        </mxCell>
        <mxCell id="pGjjTHvSry_VetWjGLrW-123" value="绩效统计" style="rounded=1;whiteSpace=wrap;html=1;fontSize=18;strokeColor=none;fontStyle=1;fontColor=#FFFFFF;fillColor=#3333FF;" vertex="1" parent="1">
          <mxGeometry x="967.5699999999998" y="480.63" width="117.5" height="55.5" as="geometry" />
        </mxCell>
        <mxCell id="pGjjTHvSry_VetWjGLrW-124" value="结果导出" style="rounded=1;whiteSpace=wrap;html=1;fontSize=18;strokeColor=none;fontStyle=1;fontColor=#FFFFFF;fillColor=#3333FF;" vertex="1" parent="1">
          <mxGeometry x="1107.5699999999997" y="480.63" width="117.5" height="55.5" as="geometry" />
        </mxCell>
        <mxCell id="pGjjTHvSry_VetWjGLrW-125" value="任务监控" style="rounded=1;whiteSpace=wrap;html=1;fontSize=18;strokeColor=none;fontStyle=1;fontColor=#FFFFFF;fillColor=#3333FF;" vertex="1" parent="1">
          <mxGeometry x="1251.9799999999998" y="410.13" width="117.5" height="55.5" as="geometry" />
        </mxCell>
        <mxCell id="pGjjTHvSry_VetWjGLrW-126" value="任务接口" style="rounded=1;whiteSpace=wrap;html=1;fontSize=18;strokeColor=none;fontStyle=1;fontColor=#FFFFFF;fillColor=#3333FF;" vertex="1" parent="1">
          <mxGeometry x="1254.4799999999998" y="483.14" width="117.5" height="55.5" as="geometry" />
        </mxCell>
        <mxCell id="pGjjTHvSry_VetWjGLrW-127" value="" style="rounded=1;whiteSpace=wrap;fontSize=32;spacing=2;html=1;glass=0;strokeWidth=1;shadow=0;sketch=0;labelBackgroundColor=none;strokeColor=none;" vertex="1" parent="1">
          <mxGeometry x="1440" y="358.26" width="325.59" height="199.88" as="geometry" />
        </mxCell>
        <mxCell id="pGjjTHvSry_VetWjGLrW-128" value="工具管理" style="text;html=1;strokeColor=none;fillColor=none;align=center;verticalAlign=middle;whiteSpace=wrap;rounded=0;fontSize=20;fontStyle=1;" vertex="1" parent="1">
          <mxGeometry x="1532.98" y="374.13" width="139.63" height="20" as="geometry" />
        </mxCell>
        <mxCell id="pGjjTHvSry_VetWjGLrW-129" value="可视化配置" style="rounded=1;whiteSpace=wrap;html=1;fontSize=18;strokeColor=none;fontStyle=1;fontColor=#FFFFFF;fillColor=#3333FF;" vertex="1" parent="1">
          <mxGeometry x="1475.5900000000001" y="410.13" width="117.5" height="55.5" as="geometry" />
        </mxCell>
        <mxCell id="pGjjTHvSry_VetWjGLrW-130" value="在线预览" style="rounded=1;whiteSpace=wrap;html=1;fontSize=18;strokeColor=none;fontStyle=1;fontColor=#FFFFFF;fillColor=#3333FF;" vertex="1" parent="1">
          <mxGeometry x="1615.5900000000001" y="410.13" width="117.5" height="55.5" as="geometry" />
        </mxCell>
        <mxCell id="pGjjTHvSry_VetWjGLrW-131" value="数据示例" style="rounded=1;whiteSpace=wrap;html=1;fontSize=18;strokeColor=none;fontStyle=1;fontColor=#FFFFFF;fillColor=#3333FF;" vertex="1" parent="1">
          <mxGeometry x="1475.59" y="480.63" width="117.5" height="55.5" as="geometry" />
        </mxCell>
        <mxCell id="pGjjTHvSry_VetWjGLrW-132" value="预识别支持" style="rounded=1;whiteSpace=wrap;html=1;fontSize=18;strokeColor=none;fontStyle=1;fontColor=#FFFFFF;fillColor=#3333FF;" vertex="1" parent="1">
          <mxGeometry x="1615.5900000000001" y="480.63" width="117.5" height="55.5" as="geometry" />
        </mxCell>
        <mxCell id="pGjjTHvSry_VetWjGLrW-133" value="无效数据设置" style="rounded=1;whiteSpace=wrap;html=1;fontSize=18;strokeColor=none;fontStyle=1;fontColor=#FFFFFF;fillColor=#3333FF;" vertex="1" parent="1">
          <mxGeometry x="395.5899999999998" y="717.13" width="117.5" height="55.5" as="geometry" />
        </mxCell>
        <mxCell id="pGjjTHvSry_VetWjGLrW-134" value="自定义质检项" style="rounded=1;whiteSpace=wrap;html=1;fontSize=18;strokeColor=none;fontStyle=1;fontColor=#FFFFFF;fillColor=#3333FF;" vertex="1" parent="1">
          <mxGeometry x="540.48" y="646.63" width="117.5" height="55.5" as="geometry" />
        </mxCell>
        <mxCell id="pGjjTHvSry_VetWjGLrW-135" value="机器质检" style="rounded=1;whiteSpace=wrap;html=1;fontSize=18;strokeColor=none;fontStyle=1;fontColor=#FFFFFF;fillColor=#3333FF;" vertex="1" parent="1">
          <mxGeometry x="540.48" y="717.13" width="117.5" height="55.5" as="geometry" />
        </mxCell>
        <mxCell id="pGjjTHvSry_VetWjGLrW-136" value="" style="rounded=1;whiteSpace=wrap;fontSize=32;spacing=2;html=1;glass=0;strokeWidth=1;shadow=0;sketch=0;labelBackgroundColor=none;strokeColor=none;" vertex="1" parent="1">
          <mxGeometry x="717.98" y="589.38" width="325.59" height="198.12" as="geometry" />
        </mxCell>
        <mxCell id="pGjjTHvSry_VetWjGLrW-137" value="组织管理" style="text;html=1;strokeColor=none;fillColor=none;align=center;verticalAlign=middle;whiteSpace=wrap;rounded=0;fontSize=20;fontStyle=1;" vertex="1" parent="1">
          <mxGeometry x="810.96" y="605.25" width="139.63" height="20" as="geometry" />
        </mxCell>
        <mxCell id="pGjjTHvSry_VetWjGLrW-138" value="多租户管理" style="rounded=1;whiteSpace=wrap;html=1;fontSize=18;strokeColor=none;fontStyle=1;fontColor=#FFFFFF;fillColor=#3333FF;" vertex="1" parent="1">
          <mxGeometry x="753.5699999999999" y="641.25" width="117.5" height="55.5" as="geometry" />
        </mxCell>
        <mxCell id="pGjjTHvSry_VetWjGLrW-139" value="人员批量导入" style="rounded=1;whiteSpace=wrap;html=1;fontSize=18;strokeColor=none;fontStyle=1;fontColor=#FFFFFF;fillColor=#3333FF;" vertex="1" parent="1">
          <mxGeometry x="893.5699999999999" y="641.25" width="117.5" height="55.5" as="geometry" />
        </mxCell>
        <mxCell id="pGjjTHvSry_VetWjGLrW-140" value="机构管理员" style="rounded=1;whiteSpace=wrap;html=1;fontSize=18;strokeColor=none;fontStyle=1;fontColor=#FFFFFF;fillColor=#3333FF;" vertex="1" parent="1">
          <mxGeometry x="753.5699999999999" y="711.75" width="117.5" height="55.5" as="geometry" />
        </mxCell>
        <mxCell id="pGjjTHvSry_VetWjGLrW-141" value="统一认证" style="rounded=1;whiteSpace=wrap;html=1;fontSize=18;strokeColor=none;fontStyle=1;fontColor=#FFFFFF;fillColor=#3333FF;" vertex="1" parent="1">
          <mxGeometry x="894.16" y="712.5" width="117.5" height="55.5" as="geometry" />
        </mxCell>
        <mxCell id="pGjjTHvSry_VetWjGLrW-142" value="" style="rounded=1;whiteSpace=wrap;fontSize=32;spacing=2;html=1;glass=0;strokeWidth=1;shadow=0;sketch=0;labelBackgroundColor=none;strokeColor=none;" vertex="1" parent="1">
          <mxGeometry x="1076.39" y="589.38" width="325.59" height="198.12" as="geometry" />
        </mxCell>
        <mxCell id="pGjjTHvSry_VetWjGLrW-143" value="考试练习" style="text;html=1;strokeColor=none;fillColor=none;align=center;verticalAlign=middle;whiteSpace=wrap;rounded=0;fontSize=20;fontStyle=1;" vertex="1" parent="1">
          <mxGeometry x="1169.3700000000001" y="605.25" width="139.63" height="20" as="geometry" />
        </mxCell>
        <mxCell id="pGjjTHvSry_VetWjGLrW-144" value="练习配置" style="rounded=1;whiteSpace=wrap;html=1;fontSize=18;strokeColor=none;fontStyle=1;fontColor=#FFFFFF;fillColor=#3333FF;" vertex="1" parent="1">
          <mxGeometry x="1111.98" y="641.25" width="117.5" height="55.5" as="geometry" />
        </mxCell>
        <mxCell id="pGjjTHvSry_VetWjGLrW-145" value="考试配置" style="rounded=1;whiteSpace=wrap;html=1;fontSize=18;strokeColor=none;fontStyle=1;fontColor=#FFFFFF;fillColor=#3333FF;" vertex="1" parent="1">
          <mxGeometry x="1251.98" y="641.25" width="117.5" height="55.5" as="geometry" />
        </mxCell>
        <mxCell id="pGjjTHvSry_VetWjGLrW-146" value="机器质检规则" style="rounded=1;whiteSpace=wrap;html=1;fontSize=18;strokeColor=none;fontStyle=1;fontColor=#FFFFFF;fillColor=#3333FF;" vertex="1" parent="1">
          <mxGeometry x="1111.98" y="711.75" width="117.5" height="55.5" as="geometry" />
        </mxCell>
        <mxCell id="pGjjTHvSry_VetWjGLrW-147" value="标注答案库" style="rounded=1;whiteSpace=wrap;html=1;fontSize=18;strokeColor=none;fontStyle=1;fontColor=#FFFFFF;fillColor=#3333FF;" vertex="1" parent="1">
          <mxGeometry x="1252.57" y="712.5" width="117.5" height="55.5" as="geometry" />
        </mxCell>
        <mxCell id="pGjjTHvSry_VetWjGLrW-148" value="" style="rounded=1;whiteSpace=wrap;fontSize=32;spacing=2;html=1;glass=0;strokeWidth=1;shadow=0;sketch=0;labelBackgroundColor=none;strokeColor=none;" vertex="1" parent="1">
          <mxGeometry x="1440" y="589.88" width="325.59" height="198.12" as="geometry" />
        </mxCell>
        <mxCell id="pGjjTHvSry_VetWjGLrW-149" value="系统管理" style="text;html=1;strokeColor=none;fillColor=none;align=center;verticalAlign=middle;whiteSpace=wrap;rounded=0;fontSize=20;fontStyle=1;" vertex="1" parent="1">
          <mxGeometry x="1532.98" y="605.75" width="139.63" height="20" as="geometry" />
        </mxCell>
        <mxCell id="pGjjTHvSry_VetWjGLrW-150" value="角色管理" style="rounded=1;whiteSpace=wrap;html=1;fontSize=18;strokeColor=none;fontStyle=1;fontColor=#FFFFFF;fillColor=#3333FF;" vertex="1" parent="1">
          <mxGeometry x="1475.5900000000001" y="641.75" width="117.5" height="55.5" as="geometry" />
        </mxCell>
        <mxCell id="pGjjTHvSry_VetWjGLrW-151" value="水印管理" style="rounded=1;whiteSpace=wrap;html=1;fontSize=18;strokeColor=none;fontStyle=1;fontColor=#FFFFFF;fillColor=#3333FF;" vertex="1" parent="1">
          <mxGeometry x="1615.5900000000001" y="641.75" width="117.5" height="55.5" as="geometry" />
        </mxCell>
        <mxCell id="pGjjTHvSry_VetWjGLrW-152" value="API授权码" style="rounded=1;whiteSpace=wrap;html=1;fontSize=18;strokeColor=none;fontStyle=1;fontColor=#FFFFFF;fillColor=#3333FF;" vertex="1" parent="1">
          <mxGeometry x="1475.5900000000001" y="712.25" width="117.5" height="55.5" as="geometry" />
        </mxCell>
        <mxCell id="pGjjTHvSry_VetWjGLrW-153" value="日志审计" style="rounded=1;whiteSpace=wrap;html=1;fontSize=18;strokeColor=none;fontStyle=1;fontColor=#FFFFFF;fillColor=#3333FF;" vertex="1" parent="1">
          <mxGeometry x="1616.1799999999998" y="713" width="117.5" height="55.5" as="geometry" />
        </mxCell>
        <mxCell id="pGjjTHvSry_VetWjGLrW-154" value="" style="rounded=1;whiteSpace=wrap;html=1;shadow=0;glass=0;labelBackgroundColor=#FFFFFF;sketch=0;strokeWidth=3;fontSize=32;fontStyle=1;align=left;strokeColor=none;fillColor=#009900;" vertex="1" parent="1">
          <mxGeometry x="70" y="70.25" width="1770" height="243.5" as="geometry" />
        </mxCell>
        <mxCell id="pGjjTHvSry_VetWjGLrW-155" value="&lt;span style=&quot;font-size: 36px&quot;&gt;系统&lt;br&gt;交互&lt;/span&gt;" style="text;html=1;strokeColor=none;fillColor=none;align=center;verticalAlign=middle;whiteSpace=wrap;rounded=0;fontStyle=1;fontColor=#FFFFFF;" vertex="1" parent="1">
          <mxGeometry x="87.5" y="141.5" width="112.5" height="80" as="geometry" />
        </mxCell>
        <mxCell id="pGjjTHvSry_VetWjGLrW-156" value="&lt;font color=&quot;#000000&quot; style=&quot;font-size: 19px&quot;&gt;系统登录&lt;/font&gt;" style="rounded=1;whiteSpace=wrap;html=1;glass=0;fontSize=19;fontStyle=1;strokeColor=none;fontColor=#FFFFFF;" vertex="1" parent="1">
          <mxGeometry x="322.90999999999997" y="159.5" width="200" height="65" as="geometry" />
        </mxCell>
        <mxCell id="pGjjTHvSry_VetWjGLrW-157" value="&lt;font color=&quot;#000000&quot; style=&quot;font-size: 19px&quot;&gt;数据标注&lt;/font&gt;" style="rounded=1;whiteSpace=wrap;html=1;glass=0;fontSize=19;fontStyle=1;strokeColor=none;fontColor=#FFFFFF;" vertex="1" parent="1">
          <mxGeometry x="588" y="159.5" width="200" height="65" as="geometry" />
        </mxCell>
        <mxCell id="pGjjTHvSry_VetWjGLrW-158" value="&lt;font color=&quot;#000000&quot; style=&quot;font-size: 19px&quot;&gt;数据质检&lt;/font&gt;" style="rounded=1;whiteSpace=wrap;html=1;glass=0;fontSize=19;fontStyle=1;strokeColor=none;fontColor=#FFFFFF;" vertex="1" parent="1">
          <mxGeometry x="853" y="159.5" width="200" height="65" as="geometry" />
        </mxCell>
        <mxCell id="pGjjTHvSry_VetWjGLrW-159" value="&lt;font color=&quot;#000000&quot; style=&quot;font-size: 19px&quot;&gt;数据验收&lt;/font&gt;" style="rounded=1;whiteSpace=wrap;html=1;glass=0;fontSize=19;fontStyle=1;strokeColor=none;fontColor=#FFFFFF;" vertex="1" parent="1">
          <mxGeometry x="1118" y="159.5" width="200" height="65" as="geometry" />
        </mxCell>
        <mxCell id="pGjjTHvSry_VetWjGLrW-160" value="&lt;font color=&quot;#000000&quot; style=&quot;font-size: 19px&quot;&gt;标注组织&lt;/font&gt;" style="rounded=1;whiteSpace=wrap;html=1;glass=0;fontSize=19;fontStyle=1;strokeColor=none;fontColor=#FFFFFF;" vertex="1" parent="1">
          <mxGeometry x="1382.91" y="159.5" width="200" height="65" as="geometry" />
        </mxCell>
        <mxCell id="pGjjTHvSry_VetWjGLrW-161" value="数据查询" style="rounded=1;whiteSpace=wrap;html=1;fontSize=18;strokeColor=none;fontStyle=1;fontColor=#FFFFFF;fillColor=#CC6600;" vertex="1" parent="1">
          <mxGeometry x="400" y="984" width="117.5" height="55.5" as="geometry" />
        </mxCell>
      </root>
    </mxGraphModel>
  </diagram>
</mxfile>
